<?xml version="1.0" standalone="no"?><!DOCTYPE svg PUBLIC "-//W3C//DTD SVG 1.1//EN" "http://www.w3.org/Graphics/SVG/1.1/DTD/svg11.dtd"><svg t="1580087436924" class="icon" viewBox="0 0 1024 1024" version="1.1" xmlns="http://www.w3.org/2000/svg" p-id="1116" xmlns:xlink="http://www.w3.org/1999/xlink" width="200" height="200"><defs><style type="text/css"></style></defs><path d="M0 0h1024v1024H0z" fill="#FFFFFF" p-id="1117"></path><path d="M853.333333 853.333333h-213.333333a85.333333 85.333333 0 0 1-85.333333-85.333333V256a85.333333 85.333333 0 0 1 85.333333-85.333333h213.333333a85.333333 85.333333 0 0 1 85.333334 85.333333v512a85.333333 85.333333 0 0 1-85.333334 85.333333zM640 256v512h213.333333V256zM384 853.333333H170.666667a85.333333 85.333333 0 0 1-85.333334-85.333333V256a85.333333 85.333333 0 0 1 85.333334-85.333333h213.333333a85.333333 85.333333 0 0 1 85.333333 85.333333v512a85.333333 85.333333 0 0 1-85.333333 85.333333zM170.666667 256v512h213.333333V256z" p-id="1118"></path></svg>